<?xml version="1.0" standalone="no"?><!DOCTYPE svg PUBLIC "-//W3C//DTD SVG 1.1//EN" "http://www.w3.org/Graphics/SVG/1.1/DTD/svg11.dtd"><svg t="1599094574013" class="icon" viewBox="0 0 1024 1024" version="1.1" xmlns="http://www.w3.org/2000/svg" p-id="1340" xmlns:xlink="http://www.w3.org/1999/xlink" width="200" height="200"><defs><style type="text/css"></style></defs><path d="M512 0C337.317647 0 120.470588 289.129412 120.470588 584.282353S295.152941 1024 512 1024 903.529412 879.435294 903.529412 584.282353 686.682353 0 512 0z m313.223529 608.376471h-72.282353l-48.188235 126.494117c-6.023529 6.023529-6.023529 12.047059-18.070588 18.070588-18.070588 12.047059-48.188235 12.047059-60.235294-12.047058L530.070588 602.352941H204.8c-12.047059 0-24.094118-12.047059-24.094118-24.094117s12.047059-24.094118 24.094118-24.094118h343.341176L662.588235 722.823529l60.235294-156.611764h102.4c12.047059 0 24.094118 12.047059 24.094118 24.094117 0 6.023529-12.047059 18.070588-24.094118 18.070589z" p-id="1341" fill="#999999"></path></svg>