<?xml version="1.0" standalone="no"?><!DOCTYPE svg PUBLIC "-//W3C//DTD SVG 1.1//EN" "http://www.w3.org/Graphics/SVG/1.1/DTD/svg11.dtd"><svg t="1599095626641" class="icon" viewBox="0 0 1024 1024" version="1.1" xmlns="http://www.w3.org/2000/svg" p-id="2075" xmlns:xlink="http://www.w3.org/1999/xlink" width="200" height="200"><defs><style type="text/css"></style></defs><path d="M954.548208 488.928538 552.555671 86.934978c-12.276604-12.277628-28.5308-19.155269-45.766346-19.368116-0.275269-0.00307-0.548492-0.005117-0.822738-0.005117-17.124006 0-33.134655 6.594185-45.160549 18.62008L68.384483 478.604402c-8.086166 8.086166-8.086166 21.195741 0 29.280884 8.086166 8.086166 21.194718 8.085142 29.280884 0L490.087944 115.463732c4.26207-4.261047 10.031471-6.567579 16.191774-6.488785 6.367011 0.077771 12.403494 2.650363 16.995069 7.241938l401.99356 401.992537c4.042059 4.043083 9.341762 6.064113 14.640442 6.064113 5.298679 0 10.598382-2.02103 14.640442-6.064113C962.634374 510.123256 962.634374 497.013681 954.548208 488.928538z" p-id="2076" fill="#999999"></path><path d="M884.131439 556.832068c-11.434423 0-20.705578 9.269108-20.705578 20.704554l0 312.38366c0 12.890588-8.676613 23.779589-18.945491 23.779589L647.036509 913.699871c-11.435447 0-20.705578 9.270131-20.705578 20.705578 0 11.435447 9.270131 20.704554 20.705578 20.704554l197.443861 0c33.280987 0 60.356646-29.244045 60.356646-65.189721L904.837017 577.535599C904.835993 566.101175 895.565862 556.832068 884.131439 556.832068z" p-id="2077" fill="#999999"></path><path d="M610.585319 735.320205 392.919904 735.320205c-11.435447 0-20.704554 9.270131-20.704554 20.705578l0 133.8945c0 12.890588-7.656377 23.779589-16.718777 23.779589L169.144328 913.699871c-9.0624 0-16.718777-10.890025-16.718777-23.779589L152.425551 577.535599c0-11.435447-9.270131-20.704554-20.704554-20.704554s-20.704554 9.269108-20.704554 20.704554l0 312.38366c0 35.945677 26.075889 65.189721 58.127885 65.189721l186.352245 0c32.051997 0 58.127885-29.244045 58.127885-65.189721L413.624459 776.730337l196.960861 0c11.435447 0 20.704554-9.270131 20.704554-20.705578C631.289873 744.590336 622.020766 735.320205 610.585319 735.320205z" p-id="2078" fill="#999999"></path><path d="M505.039471 66.741054c-3.662413 0.197498-7.352455 0.515746-10.946306 1.214664-12.991895 2.52859-23.965831 8.778944-33.317827 18.136056C356.319312 190.596919 251.830539 295.068296 147.349953 399.548882c-26.222221 26.222221-52.444443 52.443419-78.662571 78.667687-0.809435 0.809435-1.626034 1.61887-2.368954 2.488681-7.966439 9.330506-5.799076 23.87578 4.532223 30.490431 8.061606 5.161556 18.61394 4.079922 25.544793-2.685155 3.866051-3.773953 7.643074-7.637957 11.477402-11.444657 0.597611-0.593518 1.285273-1.095961 1.932002-1.641383 0.187265 0.085958 0.37453 0.170892 0.561795 0.25685 0 1.193175 0 2.38635 0 3.579525 0 130.896212-0.00307 261.792425 0.007163 392.688637 0.001023 8.658194 1.363044 17.098423 4.370541 25.243941 4.26514 11.55108 11.021008 21.331841 20.795629 28.903284 9.837042 7.619538 20.953218 11.507078 33.462113 11.470239 22.593578-0.066515 45.187155-0.01842 67.780733-0.01842 39.292911 0 78.586846-0.01842 117.879758 0.017396 6.782473 0.00614 13.365402-0.943488 19.702738-3.39226 11.68718-4.516874 20.816095-12.229532 27.728528-22.573111 7.658424-11.458983 11.524474-24.13877 11.540847-37.929868 0.035816-29.879518 0.00921-59.759035 0.020466-89.63753 0-1.197268 0.13303-2.393513 0.212848-3.718695 59.34562 0 118.404714 0 177.729867 0 0.149403 2.431376 0.37453 4.547573 0.394996 6.665817 0.188288 19.311835 0.35918 38.624692 0.499373 57.93755 0.092098 12.68695 0.144286 25.374924 0.183172 38.061874 0.033769 11.050684 0 22.102391 0.050142 33.153074 0.017396 3.886517 0.666172 7.668657 2.700505 11.070126 4.242627 7.092535 10.538007 10.369162 18.781762 10.365068 77.522608-0.033769 155.045215-0.010233 232.567823-0.055259 3.419889-0.002047 6.895037-0.211824 10.250458-0.832971 13.531178-2.506077 24.77015-9.17087 33.747615-19.533892 11.005658-12.7023 16.398482-27.608801 16.404622-44.35623 0.042979-129.831974 0.023536-259.663948 0.024559-389.495922 0-0.982374-0.038886-1.967818 0.027629-2.946099 0.034792-0.502443 0.26299-0.991584 0.50449-1.841951 0.983397 0.893346 1.721201 1.511423 2.400676 2.188852 5.854335 5.838985 11.727089 11.658528 17.534352 17.543561 4.583388 4.644787 10.050913 6.813173 16.584724 6.465249 11.041474-0.587378 20.748556-10.777461 18.726503-23.7581-0.76134-4.88731-3.288906-8.765641-6.751774-12.227486C842.000899 374.532115 727.797881 260.321934 613.591793 146.115845c-20.085454-20.085454-40.140209-40.203654-60.271712-60.244083-9.91379-9.868765-23.13593-16.494673-35.649941-18.272155C508.492106 66.294892 505.039471 66.741054 505.039471 66.741054z" p-id="2079" fill="#999999"></path></svg>